<svg xmlns="http://www.w3.org/2000/svg" viewBox="0 0 913.61 1051.54"><defs><style>.cls-1{fill:#00efe3;}.cls-2{fill:none;stroke:#15f4ee;stroke-miterlimit:10;stroke-width:2px;}</style></defs><g id="Layer_2" data-name="Layer 2"><g id="SVG_retrace" data-name="SVG retrace"><polygon class="cls-1" points="909.21 450.68 912.61 612.87 158.93 1050.67 157.77 357.38 304.1 439.84 300.54 798.66 909.21 450.68"/><polygon class="cls-1" points="907.97 439.84 312.23 781.26 311.64 618.02 626.02 443.04 7.97 78.67 142.68 0.87 907.97 439.84"/><polygon class="cls-1" points="606.02 441.3 604.83 443.32 460.87 522.29 147.34 339.97 146.16 1050.67 2.74 969.38 1 89.13 2.19 87.1 606.02 441.3"/><line class="cls-2" x1="142.68" y1="0.87" x2="907.97" y2="439.84"/><line class="cls-2" x1="907.97" y1="439.84" x2="312.23" y2="781.26"/><line class="cls-2" x1="312.23" y1="781.26" x2="311.64" y2="618.02"/><line class="cls-2" x1="142.68" y1="0.87" x2="7.97" y2="78.67"/><line class="cls-2" x1="7.97" y1="78.67" x2="626.02" y2="443.04"/><line class="cls-2" x1="626.02" y1="443.04" x2="311.64" y2="618.02"/><line class="cls-2" x1="909.21" y1="450.68" x2="912.61" y2="612.87"/><line class="cls-2" x1="912.61" y1="612.87" x2="158.93" y2="1050.67"/><line class="cls-2" x1="158.93" y1="1050.67" x2="157.77" y2="357.38"/><line class="cls-2" x1="157.77" y1="357.38" x2="304.1" y2="439.84"/><line class="cls-2" x1="304.1" y1="439.84" x2="300.54" y2="798.66"/><line class="cls-2" x1="300.54" y1="798.66" x2="909.21" y2="450.68"/><line class="cls-2" x1="1" y1="89.13" x2="2.74" y2="969.38"/><line class="cls-2" x1="2.74" y1="969.38" x2="146.16" y2="1050.67"/><line class="cls-2" x1="146.16" y1="1050.67" x2="147.34" y2="339.97"/><line class="cls-2" x1="147.34" y1="339.97" x2="460.87" y2="522.29"/><line class="cls-2" x1="460.87" y1="522.29" x2="604.83" y2="443.32"/><line class="cls-2" x1="2.19" y1="87.1" x2="606.02" y2="441.3"/></g></g></svg>