<svg id="Layer_1" data-name="Layer 1" xmlns="http://www.w3.org/2000/svg" viewBox="0 0 183 176"><defs><style>.cls-1,.cls-3{stroke:red;stroke-miterlimit:10;}.cls-1{stroke-width:0px;}.cls-2,.cls-3{fill:#fff;}.cls-3{stroke-width:0.03px;}</style></defs><rect class="cls-1" width="183" height="176" rx="6.44"/><path class="cls-2" d="M187.17,75.15A85,85,0,0,1,190,118.71l-.39,1.87a85.08,85.08,0,0,1-4.32,13.93l-45,8.59Z" transform="translate(-15 -14)"/><path class="cls-2" d="M185.32,70.15l-26.58,37.39L144.89,26.22A85.28,85.28,0,0,1,185.32,70.15Z" transform="translate(-15 -14)"/><path class="cls-2" d="M102.32,155.23,183,139.58a85.44,85.44,0,0,1-43.59,41.3Z" transform="translate(-15 -14)"/><path class="cls-2" d="M139,23.51l7.65,45.7L78.13,21.81A85.61,85.61,0,0,1,139,23.51Z" transform="translate(-15 -14)"/><path class="cls-2" d="M66.66,137.16l67.56,45.72a85.43,85.43,0,0,1-59.75-1.45Z" transform="translate(-15 -14)"/><path class="cls-2" d="M111.75,51,29,66.35A85.41,85.41,0,0,1,72.6,24Z" transform="translate(-15 -14)"/><path class="cls-2" d="M72.8,63.59l-46.88,67.2A84.94,84.94,0,0,1,23,84a86.19,86.19,0,0,1,3.7-12.33Z" transform="translate(-15 -14)"/><path class="cls-2" d="M53.67,99.32l15.64,79.84a85.4,85.4,0,0,1-41-42.45Z" transform="translate(-15 -14)"/><circle class="cls-3" cx="24.3" cy="24.34" r="6.38" transform="translate(-22.48 23.48) rotate(-67.5)"/><path d="M107,45.21c-33.14,0-60,26.14-60,58.4S73.86,162,107,162s60-26.14,60-58.39S140.14,45.21,107,45.21Z" transform="translate(-15 -14)"/><polygon class="cls-2" points="136.43 111.02 138.89 123.77 112.91 132.8 93.93 87.23 65.44 128.44 49.8 128.28 87.56 69.45 83.23 57.79 68.22 57.79 68.22 43.9 93.92 43.9 123.45 115.02 136.43 111.02"/></svg>