<svg xmlns="http://www.w3.org/2000/svg" viewBox="0 0 1256 1256"><defs><style>.cls-1{fill:none;stroke:#fff;stroke-miterlimit:10;stroke-width:25px;}.cls-2{fill:#fff;}</style></defs><g id="Layer_2" data-name="Layer 2"><circle class="cls-1" cx="628" cy="628" r="613.94"/><path class="cls-2" d="M31.84,526.73c3.22,0,3.22-5,0-5s-3.22,5,0,5Z"/></g><g id="Layer_4" data-name="Layer 4"><path class="cls-2" d="M59.66,862H295.89a15.47,15.47,0,0,0,10.61-4.39A15.23,15.23,0,0,0,310.89,847c-.17-3.88-1.45-7.9-4.39-10.61A15.63,15.63,0,0,0,295.89,832H59.66a15.47,15.47,0,0,0-10.61,4.39A15.25,15.25,0,0,0,44.66,847c.17,3.88,1.45,7.9,4.39,10.61A15.63,15.63,0,0,0,59.66,862Z"/><path class="cls-2" d="M310.89,844.48V382.65c0-7.85-6.9-15.37-15-15s-15,6.59-15,15V844.48c0,7.84,6.9,15.36,15,15s15-6.59,15-15Z"/><path class="cls-2" d="M299.24,396.39H637.42A15.49,15.49,0,0,0,648,392a15.23,15.23,0,0,0,4.39-10.61c-.37-8.12-6.59-15-15-15H299.24a15.48,15.48,0,0,0-10.61,4.4,15.23,15.23,0,0,0-4.39,10.6c.36,8.13,6.59,15,15,15Z"/><path class="cls-2" d="M622.42,382.65V843.23c0,7.84,6.9,15.36,15,15s15-6.6,15-15V382.65c0-7.85-6.9-15.37-15-15s-15,6.59-15,15Z"/><path class="cls-2" d="M640.77,858.23H981.18a15.48,15.48,0,0,0,10.61-4.4,15.23,15.23,0,0,0,4.39-10.6c-.36-8.13-6.59-15-15-15H640.77a15.47,15.47,0,0,0-10.61,4.39,15.23,15.23,0,0,0-4.39,10.61c.36,8.12,6.59,15,15,15Z"/><path class="cls-2" d="M1000.65,843.23V382.65c0-7.85-6.9-15.37-15-15s-15,6.59-15,15V843.23c0,7.84,6.89,15.36,15,15s15-6.6,15-15Z"/><path class="cls-2" d="M984.53,392.64h200.86a15.47,15.47,0,0,0,10.6-4.39,15.26,15.26,0,0,0,4.4-10.61c-.18-3.88-1.45-7.9-4.4-10.61a15.59,15.59,0,0,0-10.6-4.39H984.53A15.47,15.47,0,0,0,973.92,367a15.23,15.23,0,0,0-4.39,10.61c.17,3.88,1.45,7.9,4.39,10.61a15.61,15.61,0,0,0,10.61,4.39Z"/><path class="cls-2" d="M987,391.41V378.89a2.5,2.5,0,0,0-5,0v12.52a2.5,2.5,0,1,0,5,0Z"/></g><g id="Layer_5" data-name="Layer 5"><path class="cls-2" d="M278.18,1033.59h14.94v106.49H278.18Zm7.69,51h34.06a15.77,15.77,0,0,0,8.5-2.27,15,15,0,0,0,5.67-6.44,24,24,0,0,0,0-19.26,15.3,15.3,0,0,0-5.67-6.49,15.71,15.71,0,0,0-8.5-2.3H285.87v-14.21h33.55a33.69,33.69,0,0,1,16.77,4.06,28.22,28.22,0,0,1,11.24,11.47,38.64,38.64,0,0,1,0,34.24,28.14,28.14,0,0,1-11.24,11.39,34,34,0,0,1-16.77,4H285.87Z"/><path class="cls-2" d="M370.1,1033.51H385v106.57H370.1Zm6.52,47.32H413a13.93,13.93,0,0,0,7.54-2,13.47,13.47,0,0,0,5.09-5.82,21.83,21.83,0,0,0,0-17.36,13.55,13.55,0,0,0-5.05-5.83,14,14,0,0,0-7.58-2H376.62v-14.21h35.74a33.52,33.52,0,0,1,16.23,3.81,26.74,26.74,0,0,1,10.84,10.81,35.72,35.72,0,0,1,0,32.3,26.93,26.93,0,0,1-10.88,10.8,33.2,33.2,0,0,1-16.15,3.81H376.62Zm29,10.91,14.87-3.37,27.25,51.71H430Z"/><path class="cls-2" d="M480.55,1136.31a33.33,33.33,0,0,1-13.15-13.77,43.87,43.87,0,0,1-4.65-20.62v-30.17a43.9,43.9,0,0,1,4.65-20.62,33.33,33.33,0,0,1,13.15-13.77,42,42,0,0,1,39.26,0A33.4,33.4,0,0,1,533,1051.13a43.9,43.9,0,0,1,4.65,20.62v30.17a43.87,43.87,0,0,1-4.65,20.62,33.4,33.4,0,0,1-13.15,13.77,42,42,0,0,1-39.26,0Zm31.24-12.82a19.91,19.91,0,0,0,7.76-8.42,27.76,27.76,0,0,0,2.75-12.63v-31.21a27.76,27.76,0,0,0-2.75-12.63,19.91,19.91,0,0,0-7.76-8.42,24.18,24.18,0,0,0-23.22,0,19.91,19.91,0,0,0-7.76,8.42,27.76,27.76,0,0,0-2.75,12.63v31.21a27.76,27.76,0,0,0,2.75,12.63,19.91,19.91,0,0,0,7.76,8.42,24.18,24.18,0,0,0,23.22,0Z"/><path class="cls-2" d="M559.43,1137.74a30.29,30.29,0,0,1-11.57-9.67l12.23-8.79a14,14,0,0,0,5.93,5.57,19.6,19.6,0,0,0,9,2q8.72,0,13.52-5.42t4.79-15.24v-72.58h14.95v72.65q0,11.07-3.89,18.9a26.88,26.88,0,0,1-11.35,11.94q-7.47,4.1-18,4.1A35.39,35.39,0,0,1,559.43,1137.74Z"/><path class="cls-2" d="M634.65,1033.59h14.94v106.49H634.65Zm7.25,0h61.16v14.21H641.9Zm0,46.51H695v14.21H641.9Zm0,45.77h61.16v14.21H641.9Z"/><path class="cls-2" d="M739.72,1136.27a33.3,33.3,0,0,1-13-13.91,45.17,45.17,0,0,1-4.62-20.88v-29.22a45.1,45.1,0,0,1,4.62-20.87,33.55,33.55,0,0,1,13-14,37.61,37.61,0,0,1,19.44-4.94,36.6,36.6,0,0,1,16.85,3.92,35.47,35.47,0,0,1,12.85,11.09,41.56,41.56,0,0,1,7,16.63H780.55a23.81,23.81,0,0,0-4.65-8.9,22.8,22.8,0,0,0-7.65-6,21.44,21.44,0,0,0-20.51,1,21,21,0,0,0-7.62,8.83,30.3,30.3,0,0,0-2.71,13.22v29.22a30.41,30.41,0,0,0,2.71,13.19,20.61,20.61,0,0,0,7.62,8.82,20.82,20.82,0,0,0,11.42,3.12,21.77,21.77,0,0,0,9.12-2,21.4,21.4,0,0,0,7.62-5.86,23.34,23.34,0,0,0,4.65-9.23h15.31a41.46,41.46,0,0,1-7,16.63,35.93,35.93,0,0,1-12.89,11.09,36.34,36.34,0,0,1-16.78,3.92A37.79,37.79,0,0,1,739.72,1136.27Z"/><path class="cls-2" d="M802.45,1033.59H877.6v14.21H802.45Zm30.1,8.71h14.94v97.78H832.55Z"/><path class="cls-2" d="M930.18,1137.74a30.29,30.29,0,0,1-11.57-9.67l12.23-8.79a14,14,0,0,0,5.94,5.57,19.54,19.54,0,0,0,9,2q8.72,0,13.51-5.42t4.8-15.24v-72.58H979v72.65q0,11.07-3.88,18.9a26.9,26.9,0,0,1-11.36,11.94q-7.47,4.1-18,4.1A35.4,35.4,0,0,1,930.18,1137.74Z"/></g></svg>